<svg width="25" height="25" viewBox="0 0 25 25" fill="none" xmlns="http://www.w3.org/2000/svg">
<path d="M4.5 22.5H20.5C21.0304 22.5 21.5391 22.2893 21.9142 21.9142C22.2893 21.5391 22.5 21.0304 22.5 20.5V4.5C22.5 3.96957 22.2893 3.46086 21.9142 3.08579C21.5391 2.71071 21.0304 2.5 20.5 2.5H8.5C7.96957 2.5 7.46086 2.71071 7.08579 3.08579C6.71071 3.46086 6.5 3.96957 6.5 4.5V20.5C6.5 21.0304 6.28929 21.5391 5.91421 21.9142C5.53914 22.2893 5.03043 22.5 4.5 22.5ZM4.5 22.5C3.96957 22.5 3.46086 22.2893 3.08579 21.9142C2.71071 21.5391 2.5 21.0304 2.5 20.5V11.5C2.5 10.4 3.4 9.5 4.5 9.5H6.5" stroke="#0094E8" stroke-width="2" stroke-linecap="round" stroke-linejoin="round"/>
<path d="M18.5 14.5H10.5" stroke="#0094E8" stroke-width="2" stroke-linecap="round" stroke-linejoin="round"/>
<path d="M15.5 18.5H10.5" stroke="#0094E8" stroke-width="2" stroke-linecap="round" stroke-linejoin="round"/>
<path d="M10.5 6.5H18.5V10.5H10.5V6.5Z" stroke="#0094E8" stroke-width="2" stroke-linecap="round" stroke-linejoin="round"/>
</svg>
